<svg width="200" height="200" viewBox="0 0 200 200" fill="none" xmlns="http://www.w3.org/2000/svg">
<g clip-path="url(#clip0_765_312)">
<path fill-rule="evenodd" clip-rule="evenodd" d="M99.4983 22.4303C111.979 30.8633 124.067 53.9653 128.469 77.7953C131.844 96.0758 132.824 97.8444 139.577 97.8444C144.449 97.8444 149.619 99.6782 151.664 102.13C152.413 103.028 153.365 103.763 153.779 103.763C154.875 103.763 156.751 95.6644 156.751 90.9375C156.751 85.5763 158.378 86.7304 159.191 92.6667C159.661 96.1054 159.266 99.1633 157.708 104.164C156.055 109.464 155.819 111.492 156.642 113.289C157.225 114.56 158.102 115.6 158.592 115.6C159.997 115.6 163.693 106.207 163.71 102.594C163.722 100.12 163.96 99.6841 164.687 100.804C165.962 102.766 165.925 109.255 164.611 113.961C163.698 117.229 163.801 117.925 165.359 119.058C166.352 119.781 166.873 120.661 166.516 121.016C164.318 123.2 129.142 136.371 125.737 136.283C125.063 136.267 125.379 135.601 126.437 134.804C129.299 132.651 127.54 133.046 122.137 135.768C113.642 140.05 89.8968 149.859 86.3196 150.566C84.41 150.944 90.2182 147.747 99.2255 143.464C108.234 139.18 119.3 133.763 123.815 131.426C130.778 127.824 132.888 127.187 137.693 127.233C144.032 127.293 149.305 125.282 150.983 122.164C151.932 120.399 151.65 120.476 148.989 122.702C142.41 128.207 134.227 126.623 130.551 119.135C128.829 115.627 128.783 114.905 130.055 111.276C131.604 106.856 136.656 102.777 140.58 102.777C144.221 102.777 148.689 105.482 150.839 108.99C151.905 110.726 152.778 111.772 152.779 111.313C152.79 109.007 149.046 104.707 145.732 103.221C141.077 101.134 136.177 101.892 132.517 105.264C131.059 106.609 129.181 107.709 128.345 107.709C126.19 107.709 115.277 116.44 113.822 119.328C112.599 121.755 103.982 126.758 78.3836 139.903C71.5637 143.404 66.4747 146.139 67.0759 145.978C71.6093 144.766 107.527 127.494 114.811 123.024L118.998 120.454L119.613 122.891L120.228 125.326L123.362 123.426C126.839 121.318 127.984 121.071 127.984 122.428C127.984 124.472 71.4139 153.24 58.7114 157.657L53.422 159.496L51.5045 157.149C50.0314 155.347 49.8479 154.488 50.7139 153.45C51.4122 152.614 51.4579 152.098 50.8349 152.098C48.3212 152.098 47.1298 144.087 49.085 140.327C50.4897 137.626 50.7297 137.562 62.0584 136.868C68.4061 136.48 73.8076 136.368 74.0615 136.621C74.3155 136.873 70.8167 138.438 66.2853 140.098C61.7548 141.757 58.5953 143.139 59.2649 143.168C61.486 143.263 73.5695 138.339 81.2396 134.214C93.7566 127.482 103.155 120.559 113.496 110.453L123.314 100.86L122.677 94.0536C121.269 78.9761 114.279 58.7643 105.792 45.2226C101.32 38.0888 96.4152 32.4356 97.7911 36.0015C98.304 37.3303 97.8556 37.6745 95.6018 37.6824C92.5107 37.6923 83.9041 41.3716 79.2338 44.6771C76.4185 46.6717 76.2112 46.6865 74.3621 45.0224C72.8116 43.6276 72.4317 43.5684 72.4317 44.7205C72.4317 45.5097 72.9673 46.6885 73.6221 47.3395C75.6527 49.3587 72.9148 48.6919 70.0856 46.4784C67.1582 44.1889 66.686 44.9958 69.0162 48.3032C71.3593 51.6304 68.2206 51.2605 65.5601 47.8968C63.6148 45.4387 63.5037 45.412 63.5037 47.4036C63.5037 49.7622 62.5048 50.0946 60.7261 48.3259C58.7203 46.3314 59.2788 51.3178 61.5921 56.0713C63.3033 59.584 69.4249 65.4098 72.5448 66.4939C72.9862 66.6468 72.9634 70.5432 72.4932 75.1517C71.8424 81.5477 71.9516 83.3562 72.9565 85.2876C74.0903 87.4686 74.1794 88.6461 72.5 93.6937C69.8722 101.592 70.265 105.016 74.1824 105.807C78.9638 106.77 79.3757 107.498 79.3757 112.579C79.3757 115.6 79.9173 117.779 80.8637 118.559C81.6821 119.235 82.3516 120.839 82.3516 122.124C82.3516 123.41 83.2444 125.015 84.3356 125.693C85.4268 126.371 86.3196 127.497 86.3196 128.197C86.3196 129.032 85.2969 128.717 83.3437 127.281C81.5075 125.931 80.3677 124.207 80.3677 122.778C80.3677 120.768 80.1058 120.602 78.3827 121.52C77.2905 122.101 73.1628 125.667 69.2097 129.445C62.1109 136.229 61.9542 136.315 56.6252 136.315H51.2287L54.0797 133.356C58.3711 128.901 56.401 129.8 51.7624 134.412C48.6307 137.526 47.102 138.357 44.9504 138.111C42.5785 137.841 41.8335 136.935 39.8158 131.876C38.5183 128.621 36.1037 120.853 34.4501 114.614C31.8243 104.708 31.4394 101.581 31.4195 89.953C31.3927 75.2464 32.7746 68.2339 37.7366 57.8942C45.1587 42.4251 63.0305 27.5656 79.6375 23.0547C83.0103 22.1393 83.6829 22.2972 86.5766 24.6784C88.3383 26.1284 91.0108 28.6349 92.5137 30.2477C94.0175 31.8605 95.2476 32.6783 95.2476 32.0657C95.2476 31.4522 92.971 28.9151 90.1884 26.4273C85.0598 21.8424 85.0668 21.4498 90.2876 20.5926C95.1097 19.8005 95.816 19.9416 99.4983 22.4303ZM118.703 22.0022C127.798 24.7908 133.425 27.7245 140.194 33.208C154.364 44.685 165.263 63.9657 169.764 85.5141C171.558 94.099 171.365 109.36 169.408 113.627L167.825 117.08L167.745 108.768C167.671 101.307 167.155 99.1051 162.686 87.2482C159.948 79.9842 157.965 73.6257 158.28 73.1187C159.212 71.6203 157.748 72.0593 154.761 74.1752C151.22 76.6827 134.882 84.1834 133.768 83.8145C133.307 83.6616 136.336 81.5408 140.498 79.1004C144.66 76.661 149.636 73.315 151.555 71.6647C154.462 69.1661 154.876 68.3424 154.033 66.7326C153.477 65.6692 150.72 60.0298 147.907 54.2011L142.791 43.6029L135.782 47.1126C131.927 49.0431 128.56 50.4122 128.301 50.1538C128.041 49.8963 130.36 47.8258 133.453 45.5541L139.078 41.4219L136.259 38.4933C131.317 33.3579 123.28 27.7028 115.348 23.7778C106.739 19.5174 108.155 18.7677 118.703 22.0022ZM138.915 107.997C135.384 109.763 133.891 113.205 135.127 116.73C137.72 124.128 148.815 122.5 148.815 114.723C148.815 109.311 143.503 105.701 138.915 107.997ZM152.94 114.614C152.94 115.97 153.165 116.525 153.44 115.847C153.716 115.169 153.716 114.059 153.44 113.381C153.165 112.703 152.94 113.257 152.94 114.614ZM171.006 125.711C171.335 126.932 171.611 131.178 171.618 135.147C171.625 139.115 172.123 143.278 172.726 144.397C173.566 145.958 173.508 146.626 172.478 147.276C171.472 147.91 171.631 148.126 173.119 148.138C174.384 148.149 176.135 149.78 177.951 152.638C179.518 155.103 180.594 157.324 180.344 157.572C180.094 157.821 178.366 157.247 176.504 156.297C171.733 153.859 160.949 154.129 153.314 156.875C150.059 158.045 147.189 159.003 146.935 159.003C145.947 159.003 157.172 151.111 158.966 150.545C160.013 150.215 160.65 149.727 160.383 149.462C160.116 149.196 158.967 149.474 157.829 150.08C156.454 150.811 155.759 150.838 155.759 150.159C155.759 149.598 156.095 149.123 156.503 149.103C156.912 149.083 158.587 147.965 160.223 146.616C162.237 144.956 159.031 146.124 150.303 150.226C134.495 157.659 120.328 163.206 111.581 165.387C107.952 166.291 102.235 168.516 98.8754 170.33C93.5483 173.206 91.1388 173.805 80.0175 175.01C69.5102 176.15 67.18 176.165 66.7674 175.096C65.9143 172.885 64.9113 173.667 64.953 176.512C64.9758 178.095 64.4759 179.183 63.7517 179.126C63.0702 179.071 60.9245 178.961 58.9852 178.879C55.7016 178.741 55.29 178.351 53.0054 173.215C49.6564 165.685 49.5016 163.42 52.3437 163.52C53.5708 163.563 54.5757 163.028 54.5757 162.332C54.5757 161.087 56.0875 160.704 65.9837 159.445C82.6721 157.321 127.135 142.207 161.215 127.073C165.58 125.135 169.434 123.536 169.779 123.52C170.126 123.504 170.677 124.49 171.006 125.711ZM59.4603 127.191L57.0557 129.903L59.7837 127.512C62.3331 125.277 62.967 124.478 62.1883 124.478C62.0107 124.478 60.7836 125.699 59.4603 127.191ZM163.695 137.73C155.694 142.041 123.869 151.753 94.0721 158.976C58.8612 167.512 57.0478 167.845 55.7006 166.013C54.7483 164.718 54.7136 164.81 55.5122 166.518C56.0498 167.667 56.2076 168.888 55.8633 169.231C54.3654 170.72 68.8883 170.192 82.8477 168.248C93.3549 166.785 118.194 160.948 128.48 157.526C139.679 153.798 167.663 139.324 167.663 137.258C167.663 136.004 166.681 136.122 163.695 137.73ZM55.3822 143.894C56.0974 144.179 56.9535 144.143 57.2829 143.816C57.6122 143.488 57.0269 143.255 55.9814 143.298C54.8257 143.345 54.5906 143.579 55.3822 143.894ZM51.4142 144.88C52.1295 145.165 52.9855 145.13 53.3149 144.802C53.6442 144.475 53.059 144.242 52.0134 144.284C50.8577 144.332 50.6226 144.565 51.4142 144.88ZM163.199 148.178C161.875 148.761 162.698 148.856 165.679 148.465C168.135 148.141 170.33 147.717 170.557 147.522C171.418 146.78 165.094 147.343 163.199 148.178ZM175.27 158.94C183.055 162.455 189.173 170.814 196.25 187.609L197.289 190.075L197.372 187.609C197.416 186.253 197.856 184.512 198.347 183.74C199.002 182.711 199.544 183.499 200.383 186.7C201.013 189.099 202.412 194.066 203.491 197.738C204.571 201.41 205.219 204.793 204.932 205.254C204.645 205.716 203.036 206.66 201.358 207.351C199.215 208.234 198.618 208.92 199.352 209.65C201.116 211.404 200.561 217.041 198.415 219.175C195.432 222.141 190.152 221.805 187.523 218.482L185.415 215.817L179.267 219.118C171.455 223.314 163.203 229.516 160.602 233.147C159.492 234.698 158.103 235.672 157.514 235.31C156.926 234.948 156.713 235.084 157.04 235.61C157.367 236.137 156.368 238.472 154.818 240.799C152.054 244.952 152.036 245.065 153.881 246.899C156.196 249.201 156.263 251.084 154.109 253.227C153.039 254.29 151.531 254.683 149.822 254.344C147.527 253.887 147.026 254.26 145.948 257.227C145.265 259.101 144.298 260.383 143.797 260.076C143.296 259.767 143.09 260.093 143.339 260.8C143.962 262.566 140.51 274.501 139.343 274.616C137.624 274.784 132.074 262.229 129.661 252.713L127.285 243.342L125.65 250.441C124.752 254.347 124.016 258.896 124.016 260.552C124.016 262.208 123.639 263.564 123.177 263.564C122.194 263.564 115.472 244.15 114.474 238.427C113.915 235.225 113.645 234.86 113.019 236.454C112.597 237.529 112.22 241.242 112.181 244.704L112.112 250.999L108.888 250.43C107.115 250.118 96.2892 247.657 84.8316 244.961C73.3741 242.265 61.2102 239.755 57.7997 239.384C51.6235 238.712 51.5997 238.72 51.5997 241.25C51.5997 242.87 50.702 244.375 49.1197 245.406C46.8183 246.905 46.4572 246.902 44.1022 245.368C41.6649 243.78 41.3802 243.821 36.9102 246.404C34.3499 247.883 31.1636 249.794 29.8274 250.651C27.7898 251.959 28.4108 250.31 33.6991 240.377C42.1648 224.475 47.2667 215.643 51.1265 210.21C52.8953 207.721 55.1064 203.06 56.0409 199.853C58.8899 190.077 62.2389 184.018 66.0194 181.8C67.9092 180.691 69.4557 179.996 69.4557 180.255C69.4557 180.514 65.6533 188.278 61.0058 197.509C53.3228 212.768 47.6317 225.84 47.6317 228.226C47.6317 228.735 50.1147 226.24 53.1502 222.683C59.0129 215.811 61.0574 214.665 60.2847 218.681C59.4415 223.071 61.0009 221.316 64.8875 213.503C72.4882 198.223 82.3556 185.363 91.6764 178.585C98.1661 173.866 97.7693 175.408 90.5009 183.147C82.305 191.874 76.4284 202.964 73.4673 215.292C72.3821 219.809 71.7055 223.713 71.9634 223.97C72.2204 224.226 72.4317 223.938 72.4317 223.329C72.4317 222.079 75.6785 221.468 86.0716 220.764C92.9462 220.297 93.2666 220.371 93.3331 222.438C93.4005 224.522 93.4343 224.529 94.2556 222.627C94.7248 221.542 95.1395 219.185 95.1782 217.39C95.2833 212.477 96.9092 214.483 97.6592 220.45C98.5629 227.641 103.197 240.568 106.578 245.328C109.421 249.331 109.386 249.057 105.92 240.383C104.201 236.085 104.031 234.065 104.586 224.668C106.062 199.735 111.088 187.456 123.622 178.158C125.748 176.581 127.711 175.063 127.984 174.785C129.826 172.911 136.581 168.537 143.185 164.942C157.394 157.207 167.319 155.35 175.27 158.94ZM123.024 165.09C113.188 170.496 102.191 181.352 99.7126 188.102C95.322 200.061 96.6563 198.93 82.1037 203.035C78.8846 203.943 80.3339 201.352 87.0636 194.166C90.7469 190.233 95.9529 184.431 98.6333 181.273C104.384 174.497 113.248 167.736 121.536 163.803C130.487 159.553 131.501 160.431 123.024 165.09ZM155.759 166.271C131.736 173.47 116.126 190.277 112.577 212.763L111.954 216.709L115.029 211.53C116.72 208.682 118.206 206.352 118.331 206.352C118.457 206.353 118.563 212.679 118.565 220.409C118.569 229.674 118.982 235.137 119.776 236.437C120.903 238.285 120.981 238.23 121.01 235.593C121.061 230.776 124.004 221.121 127.563 214.093C131.171 206.969 141.416 195.326 146.855 192.168L150.047 190.317L146.543 196.607C141.774 205.169 138.892 215.063 138.242 225.093C137.942 229.705 137.075 235.667 136.313 238.343C135.55 241.018 134.933 244.791 134.94 246.727C134.952 249.722 135.37 249.058 137.747 242.27C139.283 237.882 142.261 231.446 144.365 227.967C149.376 219.683 161.435 207.764 170.143 202.488L177.087 198.282L172.78 198.89C163.709 200.171 153.305 208.195 145.213 220.15C140.244 227.49 139.841 226.895 143.404 217.481C148.074 205.143 156.819 192.507 169.214 180.18C173.289 176.128 176.282 172.821 175.863 172.83C175.446 172.84 172.871 174.085 170.143 175.597C167.415 177.109 164.291 178.828 163.199 179.418C162.108 180.008 158.76 181.201 155.759 182.07C149.115 183.996 138.572 191.664 132.997 198.627C128.143 204.689 127.835 203.342 132.2 195.152C136.425 187.22 147.254 175.963 156.662 169.721C167.152 162.761 167.174 162.85 155.759 166.271ZM94.6732 209.612L93.9967 217.044L87.9257 218.038C72.4099 220.578 73.0616 220.556 73.8096 218.546C74.1865 217.535 75.4702 214.178 76.6625 211.086L78.831 205.463L84.8078 203.956C91.3927 202.295 94.5949 201.678 95.0512 201.98C95.2159 202.09 95.0462 205.523 94.6732 209.612Z" fill="white"/>
<path fill-rule="evenodd" clip-rule="evenodd" d="M106.846 71.979L112.464 69.6203C113.037 69.3797 113.693 69.4231 114.232 69.7373L114.659 69.9867L115.126 69.8278L116.947 69.2085L116.239 67.1817L114.845 67.6561C113.819 67.2203 112.654 67.2112 111.617 67.6465L105.998 70.0052L106.184 70.4385C105.093 70.8689 103.48 71.5083 101.213 72.4156C96.1585 74.438 87.8488 77.7918 74.7948 83.1294C74.6253 82.9263 74.4568 82.7376 74.2879 82.561C73.1057 81.3246 72.7251 81.3643 69.5912 83.0538C67.0453 84.4268 66.2558 85.9259 66.3963 86.8715C66.6325 88.4615 67.2666 89.8423 68.4203 92.354L68.4203 92.354C69.1312 93.9018 70.0393 95.8791 71.1731 98.5994C71.1115 97.5576 73.1388 91.7722 73.1388 91.7722C73.1388 91.7722 72.5178 90.5279 72.174 89.6488C71.7482 88.5605 71.003 87.1076 71.003 87.1076C71.003 87.1076 70.9023 86.8643 70.7003 86.4798L70.8367 86.2451C71.0277 85.9164 71.4339 85.7818 71.7827 85.9317L71.8253 85.8328C72.8052 88.3218 75.2519 92.8851 77.0113 95.4317C79.5575 99.1169 80.7896 100.287 81.6473 99.8324C82.6482 99.3024 81.9575 96.596 79.4938 91.3955C77.8063 87.8333 76.5826 85.5701 75.4733 84.0126C88.3695 78.7401 96.5964 75.4199 101.612 73.4127C103.899 72.4978 105.518 71.8558 106.608 71.426L106.846 71.979ZM71.4656 84.7966C70.9429 84.8034 70.4378 85.0352 70.0921 85.4453C70.029 85.3467 69.9705 85.2561 69.9166 85.1727L69.9162 85.1721C69.5524 84.609 69.3989 84.3714 69.4563 84.2078C69.4982 84.0885 69.6523 84.0085 69.9189 83.8702C69.9681 83.8447 70.0211 83.8172 70.078 83.7871C70.9395 83.3309 71.0025 83.3235 71.4656 84.7966Z" fill="#D4AF37"/>
</g>
<rect x="3.125" y="3.125" width="193.75" height="193.75" rx="96.875" stroke="white" stroke-width="6.25"/>
<defs>
<clipPath id="clip0_765_312">
<rect width="200" height="200" rx="100" fill="white"/>
</clipPath>
</defs>
</svg>